# xmcd
#
# Track frame offsets:
#	150
#	25698
#	47820
#	89899
#	101388
#	122160
#	158607
#	190991
#	225570
#
# Disc length: 3475 seconds
#
# Revision: 3
# Processed by: cddbd v1.5.2PL0 Copyright (c) Steve Scherf et al.
# Submitted via: audiograbber 1.82.02
#
DISCID=6c0d9109
DTITLE=Bireli Lagrene - Electric Side
DYEAR=2008
DGENRE=Jazz
TTITLE0=Hips
TTITLE1=Incertitude
TTITLE2=Timothee
TTITLE3=Jack Rabbit
TTITLE4=Clair Obscur
TTITLE5=Foreign Affairs
TTITLE6=Josef
TTITLE7=Berga
TTITLE8=Hips House
EXTD=YEAR: 2008
EXTT0=
EXTT1=
EXTT2=
EXTT3=
EXTT4=
EXTT5=
EXTT6=
EXTT7=
EXTT8=
PLAYORDER=
